HIERARCHY
ROOT Hips
{
 OFFSET 0.000000 0.000000 0.000000
 CHANNELS 6 Xposition Yposition Zposition Yrotation Xrotation Zrotation
 JOINT Chest
 {
  OFFSET 0.000000 9.857222 0.000240
  CHANNELS 3 Yrotation Xrotation Zrotation
  JOINT Chest2
  {
   OFFSET 0.000000 10.876940 -0.000436
   CHANNELS 3 Yrotation Xrotation Zrotation
   JOINT Chest3
   {
    OFFSET 0.000000 9.827798 0.000000
    CHANNELS 3 Yrotation Xrotation Zrotation
    JOINT Chest4
    {
     OFFSET 0.000000 9.827798 0.000000
     CHANNELS 3 Yrotation Xrotation Zrotation
     JOINT Neck
     {
      OFFSET 0.000000 13.831992 0.000000
      CHANNELS 3 Yrotation Xrotation Zrotation
      JOINT Head
      {
       OFFSET 0.000000 9.147643 -0.001036
       CHANNELS 3 Yrotation Xrotation Zrotation
       End Site
       {
        OFFSET 0.000000 17.515799 -0.000541
       }
      }
     }
     JOINT RightCollar
     {
      OFFSET -3.001579 7.717577 0.000000
      CHANNELS 3 Yrotation Xrotation Zrotation
      JOINT RightShoulder
      {
       OFFSET -14.002642 0.000000 0.000000
       CHANNELS 3 Yrotation Xrotation Zrotation
       JOINT RightElbow
       {
        OFFSET -30.053852 0.000000 0.000000
        CHANNELS 3 Yrotation Xrotation Zrotation
        JOINT RightWrist
        {
         OFFSET -24.564923 0.000000 -0.000000
         CHANNELS 3 Yrotation Xrotation Zrotation
         End Site
         {
          OFFSET -18.334355 0.000000 0.000000
         }
        }
       }
      }
     }
     JOINT LeftCollar
     {
      OFFSET 3.001579 7.717577 0.000000
      CHANNELS 3 Yrotation Xrotation Zrotation
      JOINT LeftShoulder
      {
       OFFSET 14.002642 0.000000 0.000000
       CHANNELS 3 Yrotation Xrotation Zrotation
       JOINT LeftElbow
       {
        OFFSET 30.053852 0.000000 0.000000
        CHANNELS 3 Yrotation Xrotation Zrotation
        JOINT LeftWrist
        {
         OFFSET 24.564923 0.000000 -0.000000
         CHANNELS 3 Yrotation Xrotation Zrotation
         End Site
         {
          OFFSET 18.334355 0.000000 0.000000
         }
        }
       }
      }
     }
    }
   }
  }
 }
 JOINT RightHip
 {
  OFFSET -8.003235 -0.001175 -0.000120
  CHANNELS 3 Yrotation Xrotation Zrotation
  JOINT RightKnee
  {
   OFFSET 0.000000 -41.759727 0.000113
   CHANNELS 3 Yrotation Xrotation Zrotation
   JOINT RightAnkle
   {
    OFFSET 0.000000 -40.728748 0.000159
    CHANNELS 3 Yrotation Xrotation Zrotation
    JOINT RightToe
    {
     OFFSET 0.000000 -6.515296 14.732841
     CHANNELS 3 Yrotation Xrotation Zrotation
     End Site
     {
      OFFSET 0.000000 -1.502839 6.412115
     }
    }
   }
  }
 }
 JOINT LeftHip
 {
  OFFSET 8.003235 -0.001175 -0.000120
  CHANNELS 3 Yrotation Xrotation Zrotation
  JOINT LeftKnee
  {
   OFFSET 0.000000 -41.759727 0.000113
   CHANNELS 3 Yrotation Xrotation Zrotation
   JOINT LeftAnkle
   {
    OFFSET 0.000000 -40.728748 0.000159
    CHANNELS 3 Yrotation Xrotation Zrotation
    JOINT LeftToe
    {
     OFFSET 0.000000 -6.515296 14.732841
     CHANNELS 3 Yrotation Xrotation Zrotation
     End Site
     {
      OFFSET 0.000000 -1.502839 6.412115
     }
    }
   }
  }
 }
}
MOTION
Frames: 7
Frame Time: 0.016667
0.000000 88.822259 0.000000 0.000000 -5.826342 0.000000 0.000000 11.116423 0.000000 0.000000 -5.290081 0.000000 0.000000 0.000000 0.000000 0.000000 0.000000 0.000000 0.000000 12.665069 0.000000 0.000000 0.575450 0.000000 0.000000 0.000000 0.000000 0.000000 0.000000 0.000000 2.337306 0.000000 0.000000 -2.337306 0.000000 0.000000 0.000000 0.000000 0.000000 0.000000 0.000000 0.000000 -2.337306 0.000000 0.000000 2.337306 0.000000 0.000000 0.000000 8.578828 0.000000 0.000000 1.905768 0.000000 0.000000 -4.658254 0.000000 0.000000 0.000000 0.000000 0.000000 8.578828 0.000000 0.000000 1.905768 0.000000 0.000000 -4.658254 0.000000 0.000000 0.000000 0.000000
5.942939 89.760820 19.685943 -42.247449 -12.698900 -0.320500 7.457225 -0.520140 0.340600 1.785334 -0.556682 -0.303336 1.785334 -0.556682 -0.303336 1.338714 -0.418402 -0.225876 -2.488425 29.525447 1.584472 -4.704358 18.742778 3.266404 5.074465 23.679275 14.709069 34.797353 -8.015121 73.971177 18.081766 2.460711 -0.550416 -6.214811 6.835959 -2.962014 -26.062102 30.248610 -22.624069 -38.900271 12.898517 -67.228677 -31.060306 -17.322328 2.706514 9.059672 6.183948 8.466556 -2.372466 6.276193 -0.400433 -1.255603 15.856280 -4.602457 6.176524 -9.650466 1.452437 -0.007479 -0.225202 0.087717 -18.697479 17.852926 -6.880287 25.553703 -0.269757 -7.452121 3.661010 -9.529871 5.689921 -0.731648 0.512545 -0.318051
5.909554 89.759988 19.688797 -41.888116 -12.443879 -0.310745 7.214357 -0.634760 0.227751 1.785053 -0.587586 -0.302580 1.785053 -0.587586 -0.302580 1.338487 -0.441578 -0.225219 -2.504050 29.487379 1.599770 -4.735845 18.673601 3.297711 5.094285 23.674025 14.714975 34.830699 -7.969001 74.006122 18.135957 2.436254 -0.563984 -6.211414 6.819961 -2.966201 -26.088522 30.264759 -22.636240 -38.878155 12.885111 -67.107218 -31.150159 -17.239439 2.740462 9.055542 6.191817 8.482989 -2.443407 6.006705 -0.416236 -1.239166 16.004048 -4.545725 5.928008 -9.706422 1.357651 0.063167 -0.289619 0.130846 -19.152729 17.526789 -6.905184 25.586717 -0.231192 -7.403503 3.681511 -9.541315 5.661810 -0.722193 0.533008 -0.317887
5.887188 89.755503 19.684295 -41.585701 -12.134526 -0.309645 7.037449 -0.777593 0.130716 1.782739 -0.622173 -0.302968 1.782739 -0.622173 -0.302968 1.336733 -0.467518 -0.225411 -2.520691 29.444974 1.619373 -4.770057 18.596653 3.337011 5.107601 23.681641 14.716745 34.911513 -7.921153 74.019925 18.199389 2.380865 -0.583715 -6.207383 6.803584 -2.980573 -26.097424 30.268411 -22.637409 -38.848980 12.869821 -66.972580 -31.238577 -17.127496 2.764995 9.051465 6.190326 8.500441 -2.421533 5.652313 -0.377442 -1.227417 16.174215 -4.521602 5.698300 -9.777965 1.300784 0.070376 -0.318899 0.140988 -19.531613 17.158161 -6.889903 25.638220 -0.183330 -7.350678 3.673056 -9.537475 5.644150 -0.720373 0.530633 -0.325589
5.866211 89.750464 19.667669 -41.374165 -11.848081 -0.314718 6.947512 -0.908311 0.065632 1.782536 -0.648066 -0.305040 1.782536 -0.648066 -0.305040 1.336565 -0.486944 -0.226889 -2.538111 29.399118 1.643998 -4.806693 18.513610 3.385505 5.117501 23.692592 14.718631 35.029713 -7.867612 74.027282 18.269703 2.302359 -0.636630 -6.205373 6.797902 -2.975122 -26.106493 30.282650 -22.635826 -38.826917 12.832535 -66.827733 -31.331163 -17.003761 2.807357 9.054759 6.190427 8.519532 -2.310848 5.306462 -0.307111 -1.315237 16.353462 -4.536732 5.482091 -9.837156 1.247134 0.119576 -0.352057 0.164920 -19.750027 16.831695 -6.834825 25.748750 -0.148551 -7.303055 3.601475 -9.527147 5.648475 -0.753222 0.541778 -0.355854
5.857005 89.745503 19.644416 -41.178843 -11.580278 -0.306479 6.865088 -1.030048 -0.001862 1.786481 -0.662105 -0.309922 1.786481 -0.662105 -0.309922 1.339511 -0.497490 -0.230506 -2.557945 29.349530 1.670026 -4.848007 18.423849 3.437092 5.128576 23.688692 14.722741 35.143307 -7.807180 74.044251 18.353810 2.234236 -0.718642 -6.201774 6.796781 -2.958950 -26.113318 30.304699 -22.625983 -38.835311 12.791575 -66.680042 -31.439215 -16.890498 2.883547 9.059495 6.177900 8.550597 -2.243533 4.960272 -0.248793 -1.449082 16.526001 -4.602007 5.397729 -9.892633 1.228447 0.128173 -0.368962 0.166288 -19.875533 16.542298 -6.764302 25.851885 -0.121610 -7.274921 3.473870 -9.500566 5.653363 -0.753415 0.543130 -0.374926
5.845054 89.741045 19.612844 -40.972313 -11.347488 -0.300635 6.777624 -1.115302 -0.061722 1.789975 -0.667380 -0.318845 1.789975 -0.667380 -0.318845 1.342118 -0.501474 -0.237179 -2.578735 29.298870 1.699110 -4.891651 18.332332 3.494345 5.146102 23.676737 14.729888 35.212990 -7.767530 74.047163 18.461890 2.192358 -0.798964 -6.198514 6.798791 -2.950637 -26.127238 30.314045 -22.610258 -38.860653 12.776618 -66.531434 -31.580367 -16.782473 2.992519 9.066603 6.162162 8.581903 -2.292166 4.644050 -0.201403 -1.565900 16.702411 -4.692380 5.447392 -9.956996 1.191884 0.160517 -0.382399 0.176962 -19.974907 16.299411 -6.680343 25.944372 -0.114438 -7.259323 3.363253 -9.468684 5.645536 -0.742150 0.555727 -0.385152
